# xmcd CD database file
#
# Track frame offsets:
#	150
#	20676
#	41765
#	68266
#	83510
#	97030
#	113817
#	133670
#	146701
#	163185
#	181890
#	195930
#	212911
#	228806
#
# Disc length: 3252 seconds
#
# Revision: 0
# Processed by: cddbd v1.5.1PL0 Copyright (c) Steve Scherf et al.
# Submitted via: cdripper 1.0.7
#
DISCID=b80cb20e
DTITLE=W.C. Spencer - Over Time
DYEAR=1998
DGENRE=Blues
TTITLE0=Born Under a Bad Sign
TTITLE1=Some of the Things
TTITLE2=Atlanta Blues
TTITLE3=Good Boy Blues
TTITLE4=Talk to Me
TTITLE5=My Old Home
TTITLE6=Got My Mojo Workin'
TTITLE7=Flying Crow Blues
TTITLE8=The Jump
TTITLE9=Sugar Momma
TTITLE10=The Country Minstrel
TTITLE11=I'm Your Monkey
TTITLE12=Killer Filler
TTITLE13=Groundhog Stew
EXTD=YEAR: 1998
EXTT0=
EXTT1=
EXTT2=
EXTT3=
EXTT4=
EXTT5=
EXTT6=
EXTT7=
EXTT8=
EXTT9=
EXTT10=
EXTT11=
EXTT12=
EXTT13=
PLAYORDER=
